<svg width="655" height="147" viewBox="0 0 655 147" fill="none" xmlns="http://www.w3.org/2000/svg">
<path d="M237.8 36.5H160.5H157.5L159 39.0999L181.3 78.5L181.8 79.4H182.8H213.6H181.8L157.5 36.5H237.8ZM259.9 8.19995H108.3L184.1 139.6L221.6 74.7H184.8L165.5 41.2999H240.8L259.9 8.19995Z" fill="white"/>
<path d="M86.3498 100.9H108L127.9 134.6L108.5 101.8L108 100.9H107H65.6998H64.6998L64.1998 101.8L44.7998 135.6L64.6998 100.9H86.3498ZM85.6998 8L9.7998 139.3H47.6998H48.6998L67.5998 106.6H104.9L123.8 139.3H161.4L85.6998 8Z" fill="white"/>
<path d="M289.9 15.9999C289.9 15.2999 290.3 14.8999 291 14.8999H319.7C320.1 14.8999 320.3 14.9999 320.6 15.1999C320.9 15.3999 320.9 15.6999 320.9 16.0999V17.0999C320.9 17.3999 320.8 17.6999 320.6 17.8999C320.4 18.0999 320.1 18.1999 319.7 18.1999H293.2V40.5999H314.6C314.9 40.5999 315.2 40.6999 315.4 40.8999C315.6 41.0999 315.7 41.3999 315.7 41.7999V42.8999C315.7 43.1999 315.6 43.4999 315.4 43.6999C315.2 43.8999 314.9 43.9999 314.6 43.9999H293.2V58.4999C293.2 59.1999 292.8 59.4999 292.1 59.4999H291C290.3 59.4999 289.9 59.1999 289.9 58.4999V15.9999Z" fill="white"/>
<path d="M362.2 31.7999C362.2 33.1999 362 34.5999 361.7 35.8999C361.4 37.2999 360.9 38.5999 360.2 39.7999C359.5 40.9999 358.7 42.1999 357.8 43.1999C356.8 44.2999 355.7 45.1999 354.5 45.8999L360.3 58.0999C360.3 58.0999 360.3 58.1999 360.4 58.2999C360.4 58.3999 360.4 58.4999 360.4 58.5999C360.4 58.7999 360.3 58.9999 360.2 59.1999C360.1 59.3999 359.8 59.4999 359.6 59.4999H357.8C357.4 59.4999 357.1 59.2999 356.9 58.8999L351.5 47.4999C349.6 48.1999 347.5 48.5999 345.1 48.5999H332.9V58.3999C332.9 59.1999 332.5 59.4999 331.7 59.4999H330.6C329.8 59.4999 329.5 59.0999 329.5 58.3999V16.1999C329.5 15.8999 329.6 15.5999 329.8 15.2999C330 15.0999 330.3 14.8999 330.5 14.8999H345.1C347.7 14.8999 350.1 15.3999 352.2 16.2999C354.3 17.1999 356.1 18.4999 357.6 20.0999C359.1 21.6999 360.2 23.4999 361 25.4999C361.8 27.4999 362.2 29.5999 362.2 31.7999ZM345.1 45.0999C347.3 45.0999 349.2 44.6999 350.9 43.9999C352.6 43.1999 354 42.2999 355.2 40.9999C356.4 39.7999 357.3 38.2999 357.9 36.6999C358.5 35.0999 358.8 33.3999 358.8 31.6999C358.8 29.9999 358.5 28.2999 357.9 26.6999C357.3 25.0999 356.4 23.6999 355.2 22.3999C354 21.0999 352.6 20.0999 350.9 19.3999C349.2 18.5999 347.3 18.2999 345.1 18.2999H332.9V45.0999H345.1Z" fill="white"/>
<path d="M403.9 14.9999C404.7 14.9999 405 15.3999 405 16.0999V17.0999C405 17.3999 404.9 17.6999 404.7 17.8999C404.5 18.0999 404.2 18.1999 403.8 18.1999H377.1V40.5999H398.7C399 40.5999 399.3 40.6999 399.5 40.8999C399.7 41.0999 399.8 41.3999 399.8 41.7999V42.8999C399.8 43.1999 399.7 43.4999 399.5 43.6999C399.3 43.8999 399 43.9999 398.7 43.9999H377.1V56.2999H404.3C405.1 56.2999 405.4 56.6999 405.4 57.3999V58.4999C405.4 59.1999 405 59.5999 404.3 59.5999H374.7C374.4 59.5999 374.1 59.4999 374 59.2999C373.8 59.0999 373.8 58.8999 373.8 58.4999V15.9999C373.8 15.4999 373.9 15.1999 374.1 15.0999C374.3 14.9999 374.6 14.8999 374.9 14.8999H403.9V14.9999Z" fill="white"/>
<path d="M415.2 16.1C415.2 15.8 415.3 15.5 415.5 15.3C415.7 15.1 415.9 15 416.2 15H430.7C432.8 15 434.7 15.3 436.6 15.8C438.5 16.3 440.3 17.1 441.9 18.1C443.5 19.1 445 20.2 446.4 21.6C447.7 22.9 448.9 24.4 449.9 26.1C450.8 27.7 451.6 29.5 452.1 31.4C452.6 33.3 452.9 35.3 452.9 37.3C452.9 39.4 452.6 41.3 452.1 43.2C451.6 45.1 450.8 46.9 449.8 48.5C448.8 50.1 447.7 51.6 446.3 53C444.9 54.3 443.4 55.5 441.8 56.4C440.1 57.4 438.4 58.1 436.4 58.6C434.5 59.1 432.5 59.4 430.4 59.4H416.3C416 59.4 415.8 59.3 415.5 59.2C415.2 59.1 415.1 58.8 415.1 58.5L415.2 16.1ZM430.4 56.3C432.2 56.3 433.9 56.1 435.6 55.6C437.3 55.1 438.8 54.5 440.2 53.7C441.6 52.9 442.9 51.9 444.1 50.7C445.3 49.5 446.3 48.2 447.1 46.8C447.9 45.4 448.6 43.9 449 42.2C449.5 40.6 449.7 38.9 449.7 37.1C449.7 34.4 449.2 31.9 448.2 29.6C447.2 27.3 445.8 25.3 444 23.6C442.2 21.9 440.2 20.6 437.9 19.7C435.6 18.8 433.1 18.3 430.5 18.3H418.6V56.4H430.4V56.3Z" fill="white"/>
<path d="M493.6 14.9999C494.4 14.9999 494.7 15.3999 494.7 16.0999V17.0999C494.7 17.3999 494.6 17.6999 494.4 17.8999C494.2 18.0999 493.9 18.1999 493.5 18.1999H466.8V40.5999H488.4C488.7 40.5999 489 40.6999 489.2 40.8999C489.4 41.0999 489.5 41.3999 489.5 41.7999V42.8999C489.5 43.1999 489.4 43.4999 489.2 43.6999C489 43.8999 488.7 43.9999 488.4 43.9999H466.8V56.2999H494C494.8 56.2999 495.1 56.6999 495.1 57.3999V58.4999C495.1 59.1999 494.7 59.5999 494 59.5999H464.4C464.1 59.5999 463.8 59.4999 463.7 59.2999C463.5 59.0999 463.5 58.8999 463.5 58.4999V15.9999C463.5 15.4999 463.6 15.1999 463.8 15.0999C464 14.9999 464.3 14.8999 464.6 14.8999H493.6V14.9999Z" fill="white"/>
<path d="M537.6 31.7999C537.6 33.1999 537.4 34.5999 537.1 35.8999C536.8 37.2999 536.3 38.5999 535.6 39.7999C534.9 40.9999 534.1 42.1999 533.2 43.1999C532.2 44.2999 531.1 45.1999 529.9 45.8999L535.7 58.0999C535.7 58.0999 535.7 58.1999 535.8 58.2999C535.8 58.3999 535.8 58.4999 535.8 58.5999C535.8 58.7999 535.7 58.9999 535.6 59.1999C535.5 59.3999 535.2 59.4999 535 59.4999H533.2C532.8 59.4999 532.5 59.2999 532.3 58.8999L526.9 47.4999C525 48.1999 522.9 48.5999 520.5 48.5999H508.3V58.3999C508.3 59.1999 507.9 59.4999 507.1 59.4999H506C505.2 59.4999 504.9 59.0999 504.9 58.3999V16.1999C504.9 15.8999 505 15.5999 505.2 15.2999C505.4 14.9999 505.7 14.8999 505.9 14.8999H520.5C523.1 14.8999 525.5 15.3999 527.6 16.2999C529.7 17.1999 531.5 18.4999 533 20.0999C534.5 21.6999 535.6 23.4999 536.4 25.4999C537.2 27.4999 537.6 29.5999 537.6 31.7999ZM520.5 45.0999C522.7 45.0999 524.6 44.6999 526.3 43.9999C528 43.1999 529.4 42.2999 530.6 40.9999C531.8 39.7999 532.7 38.2999 533.3 36.6999C533.9 35.0999 534.2 33.3999 534.2 31.6999C534.2 29.9999 533.9 28.2999 533.3 26.6999C532.7 25.0999 531.8 23.6999 530.6 22.3999C529.4 21.0999 528 20.0999 526.3 19.3999C524.6 18.5999 522.7 18.2999 520.5 18.2999H508.3V45.0999H520.5Z" fill="white"/>
<path d="M549.2 15.9999C549.2 15.6999 549.3 15.3999 549.5 15.1999C549.7 14.9999 550 14.8999 550.3 14.8999H551.4C551.7 14.8999 552 14.9999 552.2 15.1999C552.4 15.3999 552.5 15.6999 552.5 15.9999V58.3999C552.5 59.0999 552.1 59.4999 551.4 59.4999H550.3C549.6 59.4999 549.2 59.0999 549.2 58.3999V15.9999Z" fill="white"/>
<path d="M599.2 19.2999C599.5 19.4999 599.7 19.7999 599.7 20.0999C599.7 20.2999 599.6 20.4999 599.4 20.7999C599.4 20.7999 599.3 20.8999 599.2 21.0999C599.1 21.1999 599 21.3999 598.8 21.5999C598.6 21.7999 598.5 21.8999 598.3 22.0999C598.1 22.1999 598 22.2999 597.8 22.2999H597.7C597.6 22.2999 597.6 22.2999 597.5 22.2999C597.4 22.2999 597.3 22.1999 597.1 22.0999C595.4 20.7999 593.5 19.6999 591.6 18.9999C589.6 18.1999 587.5 17.8999 585.3 17.8999C583.5 17.8999 581.7 18.0999 580 18.5999C578.3 19.0999 576.7 19.6999 575.3 20.5999C573.8 21.4999 572.5 22.4999 571.3 23.6999C570.1 24.8999 569.1 26.1999 568.2 27.6999C567.3 29.1999 566.7 30.6999 566.2 32.2999C565.7 33.9999 565.5 35.6999 565.5 37.3999C565.5 39.1999 565.7 40.8999 566.2 42.5999C566.7 44.2999 567.3 45.7999 568.2 47.1999C569.1 48.5999 570.1 49.9999 571.3 51.0999C572.5 52.2999 573.8 53.2999 575.2 54.0999C576.6 54.8999 578.2 55.5999 579.8 55.9999C581.4 56.4999 583.1 56.6999 584.9 56.6999C589 56.6999 593 55.2999 596.7 52.5999L597.5 52.1999C597.7 52.0999 597.9 52.0999 598 52.0999C598.1 52.0999 598.3 52.1999 598.5 52.2999C598.7 52.4999 598.9 52.6999 599.1 52.8999C599.3 53.0999 599.4 53.3999 599.5 53.5999C599.6 53.8999 599.7 54.0999 599.7 54.2999C599.7 54.4999 599.6 54.5999 599.5 54.7999C599.4 54.8999 599.3 55.0999 599.1 55.1999C597.1 56.6999 595 57.8999 592.6 58.7999C590.2 59.5999 587.7 60.0999 585 60.0999C581.8 60.0999 578.9 59.4999 576.1 58.2999C573.3 57.0999 570.9 55.4999 568.9 53.3999C566.8 51.2999 565.2 48.8999 564 46.0999C562.8 43.2999 562.2 40.3999 562.2 37.1999C562.2 35.0999 562.5 33.0999 563 31.0999C563.5 29.1999 564.3 27.2999 565.3 25.6999C566.3 24.0999 567.5 22.4999 568.9 21.0999C570.3 19.6999 571.8 18.4999 573.5 17.4999C575.2 16.4999 577 15.6999 579 15.1999C580.9 14.6999 583 14.3999 585.1 14.3999C587.8 14.3999 590.3 14.7999 592.7 15.6999C595 16.5999 597.2 17.7999 599.2 19.2999Z" fill="white"/>
<path d="M633.7 47.0999C632.6 45.1999 631.4 43.2999 630.2 41.2999C629 39.2999 627.8 37.3999 626.7 35.3999L623.5 30.0999C622.2 31.2999 620.9 32.5999 619.6 33.7999C618.3 34.9999 617.1 36.2999 615.7 37.4999L612.4 40.4999V58.3999C612.4 59.1999 612 59.4999 611.2 59.4999H610.1C609.3 59.4999 609 59.0999 609 58.3999V16.0999C609 15.7999 609.1 15.4999 609.3 15.2999C609.5 15.0999 609.8 14.9999 610.2 14.9999H611.3C611.6 14.9999 611.9 15.0999 612.1 15.2999C612.3 15.4999 612.4 15.7999 612.4 16.0999V35.6999L633.1 15.8999C633.4 15.5999 633.6 15.3999 633.9 15.2999C634.1 15.1999 634.4 15.0999 634.7 14.9999C635 14.8999 635.2 14.8999 635.6 14.8999C635.9 14.8999 636.3 14.8999 636.7 14.8999C637.1 14.8999 637.5 14.9999 637.8 15.0999C638.1 15.1999 638.3 15.3999 638.3 15.7999C638.3 15.9999 638.2 16.0999 638 16.2999L626 27.5999L644.1 57.8999C644.2 58.0999 644.3 58.3999 644.3 58.6999C644.3 59.2999 643.8 59.5999 642.7 59.5999C642.4 59.5999 642.1 59.5999 641.8 59.4999C641.5 59.3999 641.2 59.2999 641.1 59.1999C639.9 57.1999 638.6 55.0999 637.4 53.0999C636.1 51.1999 634.9 49.0999 633.7 47.0999Z" fill="white"/>
<path d="M305.5 85.5999C305.6 85.3999 305.7 85.2999 305.9 85.0999C306.1 84.8999 306.3 84.8999 306.7 84.8999C307 84.8999 307.2 84.9999 307.5 85.1999C307.7 85.3999 307.9 85.5999 308 85.7999C308.1 85.9999 308.2 86.1999 308.3 86.3999C308.4 86.5999 308.5 86.6999 308.5 86.7999L309 87.9999C312 94.9999 315 102 318 109C321 116 324 123 327 130C327 130.1 327 130.2 327.1 130.3C327.1 130.4 327.1 130.5 327.1 130.6C327.1 131.2 326.7 131.5 325.9 131.5H320C319.2 131.5 318.6 131.1 318.4 130.4L316.7 126H296.8L295.1 130.3C294.8 131.1 294.2 131.5 293.4 131.5H287.5C287.1 131.5 286.7 131.4 286.6 131.3C286.4 131.1 286.3 130.9 286.3 130.6C286.3 130.5 286.3 130.4 286.3 130.2C286.3 130.1 286.4 130 286.4 129.9C289.4 122.9 292.4 115.9 295.4 108.9C298.4 102 301.4 94.9999 304.4 87.8999C304.6 87.4999 304.7 87.0999 304.9 86.6999C305.1 86.3999 305.3 85.9999 305.5 85.5999ZM306.7 100.1C306.6 100.5 306.4 100.9 306.3 101.2C306.2 101.6 306 102 305.9 102.4L299.3 119.1H314.1L307.5 102.4C307.4 102 307.2 101.6 307.1 101.2C307 100.8 306.9 100.5 306.7 100.1Z" fill="white"/>
<path d="M356.1 87C357.7 87 359.3 87.2 360.8 87.6C362.3 88 363.7 88.6 365 89.4C366.3 90.2 367.5 91.1 368.6 92.1C369.7 93.1 370.6 94.4 371.4 95.7C372.2 97 372.8 98.4 373.2 99.9C373.6 101.4 373.8 103 373.8 104.6C373.8 106 373.6 107.4 373.3 108.7C373 110 372.5 111.2 371.9 112.4C371.3 113.6 370.6 114.7 369.8 115.7C369 116.7 368.1 117.6 367 118.4L372.5 129.3C372.6 129.5 372.7 129.7 372.8 129.9C372.9 130.1 373 130.3 373 130.5C373 130.8 372.9 131 372.7 131.2C372.5 131.4 372.2 131.5 371.9 131.5H365.5C364.8 131.5 364.3 131.1 364 130.4L359.8 121.9C359.2 122.1 358.6 122.2 358 122.3C357.4 122.4 356.7 122.5 356.1 122.5H347.1V130.3C347.1 131.2 346.6 131.6 345.7 131.6H340.2C339.3 131.6 338.9 131.2 338.9 130.3V88.5C338.9 87.6 339.3 87.1 340.2 87.1H356.1V87ZM365.9 104.6C365.9 103.3 365.7 102.1 365.2 100.9C364.7 99.7 364.1 98.7 363.3 97.7C362.5 96.8 361.5 96 360.4 95.4C359.3 94.8 358.1 94.4 356.8 94.2C356.3 94.1 355.7 94.1 355.2 94C354.6 94 354.1 93.9 353.5 93.9H347.1V115.1H355.7C357.1 115.1 358.5 114.8 359.7 114.3C360.9 113.8 362 113 362.9 112.1C363.8 111.2 364.5 110 365 108.7C365.5 107.4 365.9 106.1 365.9 104.6Z" fill="white"/>
<path d="M408.9 133.1C408.7 133.1 408.4 133 408.1 132.7C407.8 132.4 407.5 132 407.2 131.5L394.6 107.1L392.2 130.1C392.2 130.6 392 130.9 391.8 131.1C391.6 131.3 391.2 131.4 390.8 131.4H385.6C384.7 131.4 384.2 131 384.2 130.2V130.1L388.5 86.8C388.5 86.7 388.5 86.6 388.5 86.5C388.5 86.4 388.6 86.2 388.6 86.1C388.7 86 388.8 85.9 388.9 85.8C389 85.7 389.2 85.7 389.4 85.7C389.8 85.7 390.1 85.9 390.4 86.4C393.5 91.7 396.5 97 399.6 102.3C402.6 107.6 405.7 112.9 408.8 118.2C408.8 118.3 408.8 118.3 408.9 118.4C409 118.3 409 118.3 409 118.2L410 116.2C412.9 111.2 415.8 106.2 418.7 101.3C421.6 96.4 424.5 91.4 427.4 86.4C427.7 85.9 428 85.7 428.4 85.7C428.6 85.7 428.8 85.7 428.9 85.8C429 85.9 429.1 86 429.2 86.1C429.3 86.2 429.3 86.4 429.3 86.5C429.3 86.6 429.3 86.8 429.3 86.8C430 93.7 430.7 100.6 431.3 107.4C431.9 114.2 432.7 121 433.4 127.9L433.6 130.2V130.3C433.6 130.7 433.5 131 433.2 131.2C432.9 131.4 432.6 131.5 432.2 131.5H427C426.1 131.5 425.7 131 425.6 130.1L423.2 107.1L410.5 131.6C410.5 131.7 410.4 131.8 410.3 131.9C410.2 132 410.1 132.2 409.9 132.4C409.8 132.6 409.6 132.7 409.4 132.9C409.2 133.1 409.1 133.1 408.9 133.1Z" fill="white"/>
<path d="M461.7 85.5999C461.8 85.3999 461.9 85.2999 462.1 85.0999C462.3 84.8999 462.5 84.8999 462.9 84.8999C463.2 84.8999 463.4 84.9999 463.7 85.1999C463.9 85.3999 464.1 85.5999 464.2 85.7999C464.3 85.9999 464.4 86.1999 464.5 86.3999C464.6 86.5999 464.7 86.6999 464.7 86.7999L465.2 87.9999C468.2 94.9999 471.2 102 474.2 109C477.2 116 480.2 123 483.2 130C483.2 130.1 483.2 130.2 483.3 130.3C483.4 130.4 483.3 130.5 483.3 130.6C483.3 131.2 482.9 131.5 482.1 131.5H476.2C475.4 131.5 474.8 131.1 474.5 130.4L472.8 126H452.9L451.2 130.3C450.9 131.1 450.3 131.5 449.5 131.5H443.6C443.2 131.5 442.8 131.4 442.7 131.3C442.5 131.1 442.4 130.9 442.4 130.6C442.4 130.5 442.4 130.4 442.4 130.2C442.4 130.1 442.5 130 442.5 129.9C445.5 122.9 448.5 115.9 451.5 108.9C454.5 102 457.5 94.9999 460.5 87.8999C460.7 87.4999 460.8 87.0999 461 86.6999C461.3 86.3999 461.5 85.9999 461.7 85.5999ZM462.9 100.1C462.8 100.5 462.6 100.9 462.5 101.2C462.4 101.5 462.2 102 462.1 102.4L455.5 119.1H470.3L463.7 102.4C463.6 102 463.4 101.6 463.3 101.2C463.2 100.8 463 100.5 462.9 100.1Z" fill="white"/>
<path d="M503.2 104V130.1C503.2 131 502.7 131.5 501.8 131.5H496.5C495.6 131.5 495.1 131 495.1 130.1V86.6999C495.1 86.5999 495.1 86.4999 495.1 86.3999C495.1 86.2999 495.1 86.0999 495.2 85.9999C495.3 85.8999 495.4 85.6999 495.5 85.5999C495.6 85.4999 495.8 85.3999 496.1 85.3999C496.4 85.3999 496.7 85.4999 496.9 85.7999L525.3 115.3V88.4999C525.3 87.4999 525.8 87.0999 526.7 87.0999H532C532.9 87.0999 533.4 87.5999 533.4 88.4999V132C533.4 132.1 533.4 132.2 533.4 132.3C533.4 132.4 533.4 132.6 533.3 132.7C533.2 132.8 533.1 133 533 133.1C532.9 133.2 532.7 133.3 532.4 133.3C532.1 133.3 531.8 133.2 531.6 132.9L503.2 104Z" fill="white"/>
<path d="M586.6 109.3C586.6 111.4 586.3 113.4 585.8 115.3C585.3 117.2 584.5 119 583.5 120.6C582.5 122.2 581.4 123.7 580 125.1C578.6 126.4 577.1 127.6 575.4 128.5C573.7 129.5 571.9 130.2 570 130.7C568.1 131.2 566.1 131.5 564 131.5H549.6C549.2 131.5 548.9 131.4 548.6 131.2C548.3 131 548.2 130.7 548.2 130.2V88.3999C548.2 87.8999 548.3 87.5999 548.5 87.2999C548.7 86.9999 549.1 86.8999 549.5 86.8999H564C566.1 86.8999 568.1 87.1999 570 87.6999C571.9 88.1999 573.7 88.9999 575.4 89.8999C577.1 90.7999 578.6 91.9999 580 93.3999C581.4 94.7999 582.5 96.2999 583.5 97.8999C584.5 99.5999 585.2 101.3 585.8 103.3C586.3 105.2 586.6 107.2 586.6 109.3ZM556.4 94.6999V123.7H559.4C561 123.7 562.6 123.7 564.2 123.6C566.2 123.5 568.1 123.1 569.9 122.3C571.6 121.5 573.1 120.5 574.4 119.2C575.7 117.9 576.7 116.4 577.4 114.6C578.1 112.8 578.5 111 578.5 109C578.5 106.9 578.1 104.9 577.3 103.2C576.5 101.4 575.4 99.8999 574.1 98.6999C572.8 97.4999 571.2 96.4999 569.4 95.7999C567.6 95.0999 565.7 94.7999 563.7 94.7999H556.4V94.6999Z" fill="white"/>
<path d="M597.1 109.3C597.1 107.2 597.4 105.2 597.9 103.2C598.4 101.2 599.2 99.3998 600.2 97.6998C601.2 95.9998 602.4 94.3998 603.8 92.9998C605.2 91.5998 606.7 90.3998 608.4 89.3998C610.1 88.3998 611.9 87.5998 613.9 87.0998C615.9 86.5998 617.9 86.2998 620 86.2998C622.1 86.2998 624.1 86.5998 626.1 87.0998C628.1 87.6998 629.9 88.3998 631.6 89.3998C633.3 90.3998 634.9 91.5998 636.3 92.9998C637.7 94.3998 638.9 95.9998 639.9 97.6998C640.9 99.3998 641.7 101.2 642.2 103.2C642.7 105.2 643 107.2 643 109.3C643 111.4 642.7 113.5 642.2 115.4C641.6 117.4 640.9 119.2 639.9 120.9C638.9 122.6 637.7 124.1 636.3 125.5C634.9 126.9 633.3 128.1 631.6 129.1C629.9 130.1 628.1 130.9 626.1 131.4C624.1 131.9 622.1 132.2 620 132.2C617.9 132.2 615.8 131.9 613.9 131.4C612 130.9 610.1 130.1 608.4 129.1C606.7 128.1 605.2 126.9 603.8 125.5C602.4 124.1 601.2 122.6 600.2 120.9C599.2 119.2 598.4 117.4 597.9 115.4C597.4 113.4 597.1 111.4 597.1 109.3ZM605.3 109.3C605.3 111.4 605.7 113.3 606.4 115.1C607.2 116.9 608.2 118.5 609.5 119.8C610.8 121.2 612.4 122.2 614.2 123C616 123.8 617.9 124.2 620 124.2C622.1 124.2 624 123.8 625.8 123C627.6 122.2 629.1 121.2 630.5 119.8C631.8 118.5 632.9 116.9 633.6 115.1C634.4 113.3 634.7 111.3 634.7 109.3C634.7 107.2 634.3 105.3 633.6 103.5C632.8 101.7 631.8 100.1 630.5 98.6998C629.2 97.2998 627.6 96.2998 625.8 95.4998C624 94.6998 622.1 94.2998 620 94.2998C617.9 94.2998 616 94.6998 614.2 95.4998C612.4 96.2998 610.9 97.3998 609.5 98.6998C608.1 99.9998 607.1 101.6 606.4 103.5C605.7 105.3 605.3 107.2 605.3 109.3Z" fill="white"/>
</svg>
