<?xml version="1.0" encoding="utf-8"?>
<!-- Generator: Adobe Illustrator 21.1.0, SVG Export Plug-In . SVG Version: 6.00 Build 0)  -->
<svg version="1.1" id="Calque_1" xmlns="http://www.w3.org/2000/svg" xmlns:xlink="http://www.w3.org/1999/xlink" x="0px" y="0px"
	 viewBox="0 0 875 200" style="enable-background:new 0 0 875 200;" xml:space="preserve">
<style type="text/css">
	.st0{fill:url(#SVGID_1_);}
	.st1{fill:url(#SVGID_2_);}
	.st2{fill:url(#SVGID_3_);}
	.st3{fill:url(#SVGID_4_);}
	.st4{fill:url(#SVGID_5_);}
	.st5{fill:url(#SVGID_6_);}
	.st6{fill:url(#SVGID_7_);}
	.st7{fill:url(#SVGID_8_);}
	.st8{fill:url(#SVGID_9_);}
	.st9{fill:url(#SVGID_10_);}
	.st10{fill:url(#SVGID_11_);}
	.st11{fill:url(#SVGID_12_);}
	.st12{fill:url(#SVGID_13_);}
	.st13{fill:url(#SVGID_14_);}
	.st14{fill:url(#SVGID_15_);}
	.st15{fill:url(#SVGID_16_);}
	.st16{fill:none;stroke:url(#SVGID_17_);stroke-width:2.0258;stroke-linecap:square;stroke-linejoin:round;}
	.st17{fill:none;stroke:url(#SVGID_18_);stroke-width:2.0258;stroke-linecap:square;stroke-linejoin:round;}
	.st18{fill:none;stroke:url(#SVGID_19_);stroke-width:2.0258;stroke-linecap:square;stroke-linejoin:round;}
	.st19{fill:none;stroke:url(#SVGID_20_);stroke-width:2.0258;stroke-linecap:square;stroke-linejoin:round;}
</style>
<g>
	<g>
		<g>
			
				<linearGradient id="SVGID_1_" gradientUnits="userSpaceOnUse" x1="383.7339" y1="928.75" x2="867.1895" y2="928.75" gradientTransform="matrix(1 0 0 1 0 -876)">
				<stop  offset="0" style="stop-color:#1A76D8"/>
				<stop  offset="1" style="stop-color:#9D44D6"/>
			</linearGradient>
			<path class="st0" d="M388.6,24.1c0-1,0.5-1.5,1.5-1.5h38.7c0.5,0,0.9,0.1,1.2,0.3c0.3,0.2,0.4,0.6,0.4,1.2v1.4
				c0,0.5-0.1,0.8-0.4,1.1c-0.3,0.3-0.7,0.4-1.2,0.4h-35.7v30.3H422c0.5,0,0.8,0.1,1.1,0.4c0.3,0.2,0.4,0.6,0.4,1.2v1.5
				c0,0.5-0.1,0.8-0.4,1.1c-0.3,0.3-0.6,0.4-1.1,0.4h-28.9v19.6c0,0.9-0.5,1.4-1.5,1.4h-1.5c-1,0-1.5-0.5-1.5-1.4V24.1z"/>
			
				<linearGradient id="SVGID_2_" gradientUnits="userSpaceOnUse" x1="383.7339" y1="928.55" x2="867.1895" y2="928.55" gradientTransform="matrix(1 0 0 1 0 -876)">
				<stop  offset="0" style="stop-color:#1A76D8"/>
				<stop  offset="1" style="stop-color:#9D44D6"/>
			</linearGradient>
			<path class="st1" d="M486.3,45.3c0,1.9-0.2,3.8-0.7,5.6s-1.1,3.6-2,5.2s-2,3.2-3.3,4.6s-2.8,2.6-4.5,3.7l7.8,16.4
				c0,0.1,0.1,0.2,0.1,0.3c0,0.2,0,0.3,0,0.4c0,0.3-0.1,0.6-0.3,0.8s-0.5,0.4-0.9,0.4h-2.4c-0.5,0-0.9-0.3-1.2-0.9l-7.3-15.4
				c-2.5,1-5.4,1.5-8.6,1.5h-16.5v13.2c0,1-0.5,1.5-1.6,1.5h-1.5c-1,0-1.5-0.5-1.5-1.5v-57c0-0.5,0.1-0.8,0.4-1.2
				c0.3-0.3,0.6-0.5,1-0.5H463c3.6,0,6.8,0.6,9.6,1.9s5.3,3,7.3,5.1s3.6,4.5,4.6,7.3C485.8,39.6,486.3,42.4,486.3,45.3z M463.2,63.4
				c2.9,0,5.6-0.5,7.9-1.5c2.3-1,4.2-2.4,5.8-4.1s2.8-3.6,3.6-5.8s1.3-4.4,1.3-6.7s-0.4-4.5-1.3-6.7c-0.8-2.2-2-4.1-3.6-5.8
				s-3.5-3.1-5.8-4.1s-4.9-1.5-7.9-1.5h-16.5v36.2H463.2z"/>
			
				<linearGradient id="SVGID_3_" gradientUnits="userSpaceOnUse" x1="383.7339" y1="928.75" x2="867.1895" y2="928.75" gradientTransform="matrix(1 0 0 1 0 -876)">
				<stop  offset="0" style="stop-color:#1A76D8"/>
				<stop  offset="1" style="stop-color:#9D44D6"/>
			</linearGradient>
			<path class="st2" d="M542.7,22.6c1,0,1.5,0.5,1.5,1.5v1.4c0,0.5-0.1,0.8-0.4,1.1c-0.3,0.3-0.6,0.4-1.2,0.4h-36.1v30.2h29.2
				c0.5,0,0.8,0.1,1.1,0.4c0.3,0.2,0.4,0.6,0.4,1.2v1.5c0,0.5-0.1,0.8-0.4,1.1c-0.3,0.3-0.6,0.4-1.1,0.4h-29.2v16.6h36.7
				c1,0,1.5,0.5,1.5,1.5v1.5c0,1-0.5,1.5-1.5,1.5h-40c-0.5,0-0.8-0.1-1-0.4s-0.3-0.6-0.3-1V24.2c0-0.6,0.2-1,0.5-1.2s0.7-0.3,1-0.3
				h39.3V22.6z"/>
			
				<linearGradient id="SVGID_4_" gradientUnits="userSpaceOnUse" x1="383.7339" y1="928.85" x2="867.1895" y2="928.85" gradientTransform="matrix(1 0 0 1 0 -876)">
				<stop  offset="0" style="stop-color:#1A76D8"/>
				<stop  offset="1" style="stop-color:#9D44D6"/>
			</linearGradient>
			<path class="st3" d="M557.9,24.2c0-0.5,0.1-0.8,0.4-1.1c0.2-0.3,0.6-0.4,1-0.4h19.5c2.8,0,5.5,0.4,8,1.1c2.6,0.7,4.9,1.7,7.2,3.1
				c2.2,1.3,4.3,2.9,6.1,4.7c1.8,1.8,3.4,3.8,4.7,6.1c1.3,2.2,2.3,4.6,3,7.2s1.1,5.2,1.1,8s-0.4,5.4-1.1,8c-0.7,2.6-1.7,4.9-3,7.2
				c-1.3,2.2-2.9,4.3-4.7,6.1c-1.9,1.8-3.9,3.4-6.1,4.7c-2.2,1.3-4.7,2.3-7.2,3c-2.6,0.7-5.3,1.1-8,1.1h-19c-0.4,0-0.7-0.1-1-0.3
				s-0.5-0.5-0.5-1V24.2H557.9z M578.3,78.4c2.4,0,4.8-0.3,7-0.9s4.3-1.5,6.2-2.6s3.7-2.5,5.2-4.1s2.9-3.3,4-5.2s2-4,2.6-6.2
				s0.9-4.5,0.9-6.8c0-3.7-0.7-7.1-2.1-10.2c-1.4-3.1-3.2-5.8-5.6-8.1c-2.4-2.3-5.1-4-8.2-5.3c-3.1-1.3-6.5-1.9-10-1.9h-16.1v51.4
				L578.3,78.4L578.3,78.4z"/>
			
				<linearGradient id="SVGID_5_" gradientUnits="userSpaceOnUse" x1="383.7339" y1="928.75" x2="867.1895" y2="928.75" gradientTransform="matrix(1 0 0 1 0 -876)">
				<stop  offset="0" style="stop-color:#1A76D8"/>
				<stop  offset="1" style="stop-color:#9D44D6"/>
			</linearGradient>
			<path class="st4" d="M663.8,22.6c1,0,1.5,0.5,1.5,1.5v1.4c0,0.5-0.1,0.8-0.4,1.1c-0.3,0.3-0.6,0.4-1.2,0.4h-36.1v30.2h29.2
				c0.5,0,0.8,0.1,1.1,0.4c0.3,0.2,0.4,0.6,0.4,1.2v1.5c0,0.5-0.1,0.8-0.4,1.1c-0.3,0.3-0.6,0.4-1.1,0.4h-29.2v16.6h36.7
				c1,0,1.5,0.5,1.5,1.5v1.5c0,1-0.5,1.5-1.5,1.5h-40c-0.5,0-0.8-0.1-1-0.4s-0.3-0.6-0.3-1V24.2c0-0.6,0.2-1,0.5-1.2s0.7-0.3,1-0.3
				h39.3V22.6z"/>
			
				<linearGradient id="SVGID_6_" gradientUnits="userSpaceOnUse" x1="383.7339" y1="928.55" x2="867.1895" y2="928.55" gradientTransform="matrix(1 0 0 1 0 -876)">
				<stop  offset="0" style="stop-color:#1A76D8"/>
				<stop  offset="1" style="stop-color:#9D44D6"/>
			</linearGradient>
			<path class="st5" d="M723.2,45.3c0,1.9-0.2,3.8-0.7,5.6s-1.1,3.6-2,5.2s-2,3.2-3.3,4.6s-2.8,2.6-4.5,3.7l7.8,16.4
				c0,0.1,0.1,0.2,0.1,0.3c0,0.2,0,0.3,0,0.4c0,0.3-0.1,0.6-0.3,0.8s-0.5,0.4-0.9,0.4H717c-0.5,0-0.9-0.3-1.2-0.9l-7.3-15.4
				c-2.5,1-5.4,1.5-8.6,1.5h-16.5v13.2c0,1-0.5,1.5-1.6,1.5h-1.5c-1,0-1.5-0.5-1.5-1.5v-57c0-0.5,0.1-0.8,0.4-1.2
				c0.3-0.3,0.6-0.5,1-0.5H700c3.6,0,6.8,0.6,9.6,1.9s5.3,3,7.3,5.1s3.6,4.5,4.6,7.3C722.7,39.6,723.2,42.4,723.2,45.3z M700,63.4
				c2.9,0,5.6-0.5,7.9-1.5c2.3-1,4.2-2.4,5.8-4.1s2.8-3.6,3.6-5.8s1.3-4.4,1.3-6.7s-0.4-4.5-1.3-6.7c-0.8-2.2-2-4.1-3.6-5.8
				s-3.5-3.1-5.8-4.1s-4.9-1.5-7.9-1.5h-16.5v36.2H700z"/>
			
				<linearGradient id="SVGID_7_" gradientUnits="userSpaceOnUse" x1="383.7339" y1="928.7" x2="867.1895" y2="928.7" gradientTransform="matrix(1 0 0 1 0 -876)">
				<stop  offset="0" style="stop-color:#1A76D8"/>
				<stop  offset="1" style="stop-color:#9D44D6"/>
			</linearGradient>
			<path class="st6" d="M738.9,24.1c0-0.5,0.1-0.8,0.4-1.1c0.3-0.3,0.6-0.4,1.1-0.4h1.5c0.5,0,0.8,0.1,1.1,0.4s0.4,0.6,0.4,1.1v57.2
				c0,1-0.5,1.5-1.5,1.5h-1.5c-1,0-1.5-0.5-1.5-1.5V24.1z"/>
			
				<linearGradient id="SVGID_8_" gradientUnits="userSpaceOnUse" x1="383.7339" y1="928.45" x2="867.1895" y2="928.45" gradientTransform="matrix(1 0 0 1 0 -876)">
				<stop  offset="0" style="stop-color:#1A76D8"/>
				<stop  offset="1" style="stop-color:#9D44D6"/>
			</linearGradient>
			<path class="st7" d="M806.4,28.5c0.4,0.3,0.6,0.7,0.6,1.1c0,0.2-0.1,0.5-0.4,0.9c-0.1,0.1-0.1,0.2-0.3,0.4
				c-0.1,0.2-0.3,0.4-0.5,0.6s-0.4,0.4-0.6,0.6c-0.2,0.2-0.4,0.3-0.6,0.3l0,0h-0.1c-0.1,0-0.2,0-0.3-0.1c-0.1,0-0.3-0.1-0.5-0.3
				c-2.3-1.8-4.8-3.2-7.5-4.2s-5.5-1.5-8.5-1.5c-2.5,0-4.9,0.3-7.2,1c-2.3,0.6-4.4,1.5-6.4,2.7s-3.8,2.6-5.4,4.2s-3,3.4-4.1,5.4
				s-2,4.1-2.7,6.3c-0.6,2.2-0.9,4.5-0.9,6.9s0.3,4.8,1,7c0.6,2.2,1.5,4.3,2.7,6.3c1.2,1.9,2.5,3.7,4.2,5.3c1.6,1.6,3.4,3,5.3,4.1
				c1.9,1.1,4,2,6.2,2.6s4.5,0.9,6.9,0.9c5.6,0,10.9-1.8,16-5.5l1-0.6c0.3-0.1,0.5-0.2,0.6-0.2c0.2,0,0.4,0.1,0.7,0.3
				c0.3,0.2,0.5,0.5,0.8,0.8c0.2,0.3,0.4,0.6,0.6,1c0.2,0.4,0.2,0.7,0.2,0.9s-0.1,0.5-0.2,0.6c-0.1,0.2-0.3,0.4-0.5,0.5
				c-2.7,2.1-5.6,3.7-8.8,4.8s-6.6,1.7-10.3,1.7c-4.3,0-8.3-0.8-12-2.4s-7-3.8-9.8-6.6s-5-6.1-6.6-9.8c-1.6-3.7-2.4-7.7-2.4-12
				c0-2.8,0.4-5.6,1.1-8.2c0.7-2.6,1.8-5.1,3.1-7.4s2.9-4.4,4.8-6.3c1.9-1.9,4-3.5,6.2-4.8c2.3-1.3,4.7-2.4,7.4-3.1
				c2.6-0.7,5.4-1.1,8.2-1.1c3.6,0,7,0.6,10.2,1.8C800.7,24.9,803.7,26.5,806.4,28.5z"/>
			
				<linearGradient id="SVGID_9_" gradientUnits="userSpaceOnUse" x1="383.7339" y1="928.95" x2="867.1895" y2="928.95" gradientTransform="matrix(1 0 0 1 0 -876)">
				<stop  offset="0" style="stop-color:#1A76D8"/>
				<stop  offset="1" style="stop-color:#9D44D6"/>
			</linearGradient>
			<path class="st8" d="M852.9,66c-1.5-2.5-3.1-5.1-4.7-7.8c-1.6-2.7-3.2-5.3-4.8-7.9l-4.3-7.2c-1.8,1.7-3.5,3.3-5.2,5
				s-3.4,3.3-5.2,5l-4.4,4.1v24.1c0,1-0.5,1.5-1.6,1.5h-1.5c-1,0-1.5-0.5-1.5-1.5V24.2c0-0.5,0.1-0.8,0.4-1.1s0.6-0.4,1.2-0.4h1.5
				c0.5,0,0.8,0.1,1.1,0.4s0.4,0.6,0.4,1.1v26.5l28-26.7c0.4-0.4,0.7-0.6,1-0.8c0.3-0.2,0.7-0.3,1-0.4c0.4-0.1,0.7-0.1,1.2-0.1
				c0.4,0,0.9,0,1.4,0s1,0.1,1.5,0.2c0.4,0.1,0.7,0.5,0.7,1c0,0.2-0.1,0.4-0.4,0.7l-16.1,15.3l24.4,41c0.1,0.3,0.2,0.7,0.2,1
				c0,0.8-0.7,1.3-2.1,1.3c-0.4,0-0.8,0-1.3-0.1s-0.8-0.2-1-0.3c-1.7-2.8-3.3-5.5-5-8.2C856.2,71.5,854.6,68.7,852.9,66z"/>
			
				<linearGradient id="SVGID_10_" gradientUnits="userSpaceOnUse" x1="383.7" y1="1024.5" x2="867.1556" y2="1024.5" gradientTransform="matrix(1 0 0 1 0 -876)">
				<stop  offset="0" style="stop-color:#1A76D8"/>
				<stop  offset="1" style="stop-color:#9D44D6"/>
			</linearGradient>
			<path class="st9" d="M409.7,118c0.1-0.2,0.3-0.5,0.6-0.7c0.2-0.2,0.6-0.3,1.1-0.3c0.4,0,0.7,0.1,1,0.3s0.5,0.5,0.7,0.8
				s0.3,0.6,0.4,0.9c0.1,0.3,0.2,0.5,0.3,0.6l0.7,1.6c4.1,9.5,8.2,19,12.2,28.4s8.1,18.9,12.1,28.4c0,0.1,0.1,0.2,0.1,0.4
				s0.1,0.3,0.1,0.4c0,0.8-0.5,1.2-1.6,1.2h-8c-1.1,0-1.9-0.5-2.2-1.5l-2.3-6H398l-2.3,5.9c-0.4,1.1-1.2,1.6-2.3,1.6h-8
				c-0.6,0-1-0.1-1.3-0.3c-0.2-0.2-0.4-0.5-0.4-0.9c0-0.2,0-0.3,0.1-0.5c0-0.2,0.1-0.3,0.1-0.4c4.1-9.5,8.1-19,12.1-28.3
				c4-9.4,8.1-18.8,12.2-28.3c0.2-0.5,0.4-1.1,0.7-1.6C409.2,119.1,409.4,118.6,409.7,118z M411.4,137.6c-0.2,0.5-0.4,1-0.6,1.5
				s-0.4,1-0.6,1.6l-8.9,22.6h20l-8.9-22.6c-0.2-0.5-0.3-1-0.5-1.6C411.7,138.6,411.6,138.1,411.4,137.6z"/>
			
				<linearGradient id="SVGID_11_" gradientUnits="userSpaceOnUse" x1="383.7339" y1="1025.9" x2="867.1895" y2="1025.9" gradientTransform="matrix(1 0 0 1 0 -876)">
				<stop  offset="0" style="stop-color:#1A76D8"/>
				<stop  offset="1" style="stop-color:#9D44D6"/>
			</linearGradient>
			<path class="st10" d="M478.1,119.9c2.2,0,4.3,0.3,6.3,0.9s3.9,1.4,5.7,2.4s3.4,2.3,4.9,3.7c1.5,1.4,2.7,3.1,3.8,4.8
				c1.1,1.8,1.9,3.7,2.5,5.7c0.6,2.1,0.9,4.2,0.9,6.4c0,1.9-0.2,3.7-0.6,5.5c-0.4,1.8-1,3.4-1.8,5s-1.7,3.1-2.9,4.4
				c-1.1,1.4-2.3,2.6-3.7,3.7l7.4,14.7c0.1,0.2,0.3,0.5,0.4,0.8c0.1,0.3,0.2,0.6,0.2,0.8c0,0.4-0.1,0.7-0.4,1
				c-0.3,0.2-0.7,0.3-1.1,0.3h-8.6c-1,0-1.7-0.5-2-1.5l-5.6-11.5c-0.8,0.2-1.6,0.4-2.5,0.5s-1.7,0.2-2.6,0.2h-12.2v10.5
				c0,1.2-0.6,1.7-1.9,1.7h-7.5c-1.2,0-1.8-0.6-1.8-1.7v-56.5c0-1.3,0.6-1.9,1.8-1.9L478.1,119.9L478.1,119.9z M491.2,143.7
				c0-1.7-0.3-3.4-0.9-5s-1.5-3-2.6-4.3s-2.4-2.3-3.9-3.2c-1.5-0.8-3.1-1.4-4.8-1.6c-0.7-0.1-1.5-0.2-2.2-0.2
				c-0.7-0.1-1.5-0.1-2.3-0.1h-8.7V158h11.7c1.9,0,3.8-0.4,5.4-1.1c1.7-0.7,3.1-1.7,4.3-3s2.2-2.8,2.9-4.5
				C490.9,147.6,491.2,145.7,491.2,143.7z"/>
			
				<linearGradient id="SVGID_12_" gradientUnits="userSpaceOnUse" x1="383.7339" y1="1026.2999" x2="867.1895" y2="1026.2999" gradientTransform="matrix(1 0 0 1 0 -876)">
				<stop  offset="0" style="stop-color:#1A76D8"/>
				<stop  offset="1" style="stop-color:#9D44D6"/>
			</linearGradient>
			<path class="st11" d="M549.3,182.2c-0.3,0-0.7-0.2-1.1-0.6c-0.4-0.4-0.8-0.9-1.2-1.6l-17-32.9l-3.2,31.1
				c-0.1,0.6-0.2,1.1-0.5,1.4c-0.3,0.3-0.8,0.5-1.4,0.5h-7c-1.3,0-1.9-0.6-1.9-1.7v-0.2l5.8-58.4c0-0.1,0-0.3,0.1-0.4
				c0-0.2,0.1-0.4,0.2-0.5c0.1-0.2,0.2-0.3,0.4-0.4s0.4-0.2,0.7-0.2c0.5,0,1,0.3,1.3,1c4.2,7.2,8.3,14.3,12.4,21.5
				s8.3,14.3,12.4,21.5c0,0.1,0,0.1,0.1,0.2c0.1-0.1,0.1-0.1,0.1-0.2l1.3-2.7c3.9-6.8,7.9-13.5,11.8-20.1
				c3.9-6.7,7.8-13.4,11.7-20.1c0.4-0.6,0.8-1,1.3-1c0.3,0,0.5,0.1,0.7,0.2s0.3,0.3,0.4,0.4c0.1,0.2,0.2,0.4,0.2,0.5
				c0,0.2,0.1,0.3,0.1,0.4c0.9,9.3,1.8,18.6,2.7,27.8s1.8,18.4,2.8,27.8l0.3,3.1v0.2c0,0.5-0.2,0.9-0.5,1.2
				c-0.4,0.2-0.8,0.4-1.4,0.4h-7c-1.2,0-1.8-0.6-1.9-1.9l-3.2-31.1l-17.1,33.1c-0.1,0.1-0.1,0.2-0.3,0.5c-0.1,0.2-0.3,0.5-0.5,0.7
				s-0.4,0.4-0.6,0.6C549.9,182.1,549.6,182.2,549.3,182.2z"/>
			
				<linearGradient id="SVGID_13_" gradientUnits="userSpaceOnUse" x1="383.7339" y1="1024.5" x2="867.1895" y2="1024.5" gradientTransform="matrix(1 0 0 1 0 -876)">
				<stop  offset="0" style="stop-color:#1A76D8"/>
				<stop  offset="1" style="stop-color:#9D44D6"/>
			</linearGradient>
			<path class="st12" d="M620.6,118c0.1-0.2,0.3-0.5,0.6-0.7c0.2-0.2,0.6-0.3,1.1-0.3c0.4,0,0.7,0.1,1,0.3s0.5,0.5,0.7,0.8
				s0.3,0.6,0.4,0.9c0.1,0.3,0.2,0.5,0.3,0.6l0.7,1.6c4.1,9.5,8.2,19,12.2,28.4s8.1,18.9,12.1,28.4c0,0.1,0.1,0.2,0.1,0.4
				s0.1,0.3,0.1,0.4c0,0.8-0.5,1.2-1.6,1.2h-8c-1.1,0-1.9-0.5-2.2-1.5l-2.3-6h-26.9l-2.3,5.9c-0.4,1.1-1.2,1.6-2.3,1.6h-8
				c-0.6,0-1-0.1-1.3-0.3c-0.2-0.2-0.4-0.5-0.4-0.9c0-0.2,0-0.3,0.1-0.5c0-0.2,0.1-0.3,0.1-0.4c4.1-9.5,8.1-19,12.1-28.3
				c4-9.4,8.1-18.8,12.2-28.3c0.2-0.5,0.4-1.1,0.7-1.6C620.1,119.1,620.3,118.6,620.6,118z M622.3,137.6c-0.2,0.5-0.4,1-0.6,1.5
				c-0.2,0.5-0.4,1-0.6,1.6l-8.9,22.6h20l-8.9-22.6c-0.2-0.5-0.3-1-0.5-1.6C622.7,138.6,622.5,138.1,622.3,137.6z"/>
			
				<linearGradient id="SVGID_14_" gradientUnits="userSpaceOnUse" x1="383.7339" y1="1025.95" x2="867.1895" y2="1025.95" gradientTransform="matrix(1 0 0 1 0 -876)">
				<stop  offset="0" style="stop-color:#1A76D8"/>
				<stop  offset="1" style="stop-color:#9D44D6"/>
			</linearGradient>
			<path class="st13" d="M676.7,142.8v35.3c0,1.3-0.6,1.9-1.9,1.9h-7.1c-1.2,0-1.9-0.6-1.9-1.9v-58.7c0-0.1,0-0.3,0-0.5
				s0.1-0.4,0.1-0.6c0.1-0.2,0.2-0.4,0.4-0.5s0.4-0.2,0.7-0.2c0.4,0,0.8,0.2,1.1,0.6l38.4,39.8v-36.3c0-1.3,0.6-1.9,1.9-1.9h7.1
				c1.2,0,1.9,0.6,1.9,1.9v58.9c0,0.1,0,0.3,0,0.4c0,0.2-0.1,0.4-0.1,0.6c-0.1,0.2-0.2,0.4-0.4,0.5s-0.4,0.2-0.7,0.2
				c-0.4,0-0.8-0.2-1.1-0.6L676.7,142.8z"/>
			
				<linearGradient id="SVGID_15_" gradientUnits="userSpaceOnUse" x1="383.7339" y1="1026.15" x2="867.1895" y2="1026.15" gradientTransform="matrix(1 0 0 1 0 -876)">
				<stop  offset="0" style="stop-color:#1A76D8"/>
				<stop  offset="1" style="stop-color:#9D44D6"/>
			</linearGradient>
			<path class="st14" d="M789.3,150c0,2.8-0.4,5.5-1.1,8.1c-0.7,2.6-1.7,5-3.1,7.2c-1.3,2.2-2.9,4.2-4.8,6.1
				c-1.9,1.8-3.9,3.4-6.2,4.7s-4.7,2.3-7.3,3s-5.3,1.1-8.1,1.1h-19.5c-0.5,0-1-0.1-1.3-0.4c-0.4-0.2-0.5-0.7-0.5-1.3V122
				c0-0.6,0.2-1.1,0.5-1.4s0.8-0.5,1.4-0.5h19.5c2.8,0,5.5,0.4,8.1,1.1s5,1.7,7.3,3s4.3,2.9,6.2,4.7c1.9,1.8,3.4,3.8,4.7,6.1
				c1.3,2.2,2.3,4.6,3.1,7.2S789.3,147.2,789.3,150z M748.6,130.3v39.2h4c2.2,0,4.3,0,6.5-0.1c2.8-0.1,5.3-0.6,7.6-1.7
				c2.3-1.1,4.4-2.5,6.1-4.2c1.7-1.8,3.1-3.8,4-6.2c1-2.4,1.5-4.9,1.5-7.6c0-2.9-0.5-5.5-1.6-7.9s-2.5-4.4-4.3-6.1
				c-1.8-1.7-3.9-3-6.3-4c-2.4-0.9-5-1.4-7.7-1.4H748.6z"/>
			
				<linearGradient id="SVGID_16_" gradientUnits="userSpaceOnUse" x1="383.7339" y1="1025.95" x2="867.1895" y2="1025.95" gradientTransform="matrix(1 0 0 1 0 -876)">
				<stop  offset="0" style="stop-color:#1A76D8"/>
				<stop  offset="1" style="stop-color:#9D44D6"/>
			</linearGradient>
			<path class="st15" d="M803.6,150c0-2.8,0.4-5.6,1.1-8.2s1.8-5.1,3.1-7.4c1.4-2.3,3-4.4,4.8-6.3c1.9-1.9,4-3.5,6.3-4.8
				s4.8-2.4,7.4-3.1s5.4-1.1,8.2-1.1s5.6,0.4,8.2,1.1c2.6,0.7,5.1,1.8,7.4,3.1s4.4,3,6.3,4.8c1.9,1.9,3.5,4,4.8,6.3s2.4,4.8,3.1,7.4
				s1.1,5.4,1.1,8.2c0,2.9-0.4,5.6-1.1,8.2s-1.8,5.1-3.1,7.4s-3,4.4-4.8,6.2c-1.9,1.9-4,3.5-6.3,4.8s-4.8,2.4-7.4,3.1
				c-2.6,0.7-5.4,1.1-8.2,1.1c-2.9,0-5.6-0.4-8.2-1.1c-2.6-0.7-5.1-1.8-7.4-3.1s-4.4-3-6.3-4.8c-1.9-1.9-3.5-4-4.8-6.2
				s-2.4-4.7-3.1-7.4S803.6,152.9,803.6,150z M814.7,150c0,2.8,0.5,5.4,1.5,7.9c1,2.4,2.4,4.6,4.2,6.4c1.8,1.8,3.9,3.3,6.3,4.3
				c2.4,1.1,5,1.6,7.8,1.6s5.4-0.5,7.8-1.6c2.4-1.1,4.5-2.5,6.3-4.3s3.2-4,4.2-6.4s1.5-5.1,1.5-7.9c0-2.8-0.5-5.4-1.5-7.9
				s-2.4-4.6-4.2-6.4c-1.8-1.8-3.9-3.3-6.3-4.3c-2.4-1.1-5-1.6-7.8-1.6s-5.4,0.5-7.8,1.6c-2.4,1.1-4.5,2.5-6.3,4.3s-3.2,4-4.2,6.4
				C815.2,144.6,814.7,147.2,814.7,150z"/>
		</g>
	</g>
	<g>
		<g>
			<g>
				
					<linearGradient id="SVGID_17_" gradientUnits="userSpaceOnUse" x1="120.8447" y1="949.7914" x2="458.6204" y2="949.7914" gradientTransform="matrix(1 0 0 1 -110.4224 -847.6914)">
					<stop  offset="0" style="stop-color:#9D44D6"/>
					<stop  offset="0.2861" style="stop-color:#7454D7"/>
					<stop  offset="0.771" style="stop-color:#336CD8"/>
					<stop  offset="1" style="stop-color:#1A76D8"/>
				</linearGradient>
				<polygon class="st16" points="246.7,103.1 220.7,58.1 322.4,58.1 348.2,13.4 143.3,13.4 245.8,190.8 296.4,103.1 				"/>
				
					<linearGradient id="SVGID_18_" gradientUnits="userSpaceOnUse" x1="120.8447" y1="949.7914" x2="458.6204" y2="949.7914" gradientTransform="matrix(1 0 0 1 -110.4224 -847.6914)">
					<stop  offset="0" style="stop-color:#9D44D6"/>
					<stop  offset="0.2861" style="stop-color:#7454D7"/>
					<stop  offset="0.771" style="stop-color:#336CD8"/>
					<stop  offset="1" style="stop-color:#1A76D8"/>
				</linearGradient>
				<path class="st17" d="M346.5,14.4L321.9,57H220.7H219l0.9,1.5l26,45.1l0.3,0.5h0.6h48l-48.9,84.7L145.1,14.4H346.5 M348.2,13.4
					H143.3l102.4,177.4l50.6-87.7h-49.7l-26-45.1h101.7L348.2,13.4L348.2,13.4z"/>
			</g>
			<g>
				
					<linearGradient id="SVGID_19_" gradientUnits="userSpaceOnUse" x1="120.8447" y1="949.5914" x2="458.6204" y2="949.5914" gradientTransform="matrix(1 0 0 1 -110.4224 -847.6914)">
					<stop  offset="0" style="stop-color:#9D44D6"/>
					<stop  offset="0.2861" style="stop-color:#7454D7"/>
					<stop  offset="0.771" style="stop-color:#336CD8"/>
					<stop  offset="1" style="stop-color:#1A76D8"/>
				</linearGradient>
				<polygon class="st18" points="10.4,190.6 61.6,190.6 63,190.6 88.5,146.4 138.9,146.4 164.4,190.6 215.3,190.6 112.9,13.2 				
					"/>
				
					<linearGradient id="SVGID_20_" gradientUnits="userSpaceOnUse" x1="120.8447" y1="949.5914" x2="458.6204" y2="949.5914" gradientTransform="matrix(1 0 0 1 -110.4224 -847.6914)">
					<stop  offset="0" style="stop-color:#9D44D6"/>
					<stop  offset="0.2861" style="stop-color:#7454D7"/>
					<stop  offset="0.771" style="stop-color:#336CD8"/>
					<stop  offset="1" style="stop-color:#1A76D8"/>
				</linearGradient>
				<path class="st19" d="M112.9,15.2l100.7,174.4H165l-25.2-43.7l-0.3-0.5h-0.6H88.5H88l-0.3,0.5l-25.2,43.7h-0.8H12.2L112.9,15.2
					 M112.9,13.2L10.4,190.6h51.2H63l25.5-44.2h50.4l25.5,44.2h50.8L112.9,13.2L112.9,13.2z"/>
			</g>
		</g>
	</g>
</g>
</svg>
